<svg viewBox="0 0 128 128" xmlns="http://www.w3.org/2000/svg"><path d="m73.28 128c-5.25 0-22.75-.45-28.09-.13-.17 0-.35.02-.52.02-5.24 0-12.4-4.75-17.35-9.2-15.86-14.24-24.47-30.83-25.61-49.32-1.49-24.11 4.48-35.64 16.79-49.67 10.98-12.52 27.55-19.7 45.46-19.7 3.5 0 7.09.27 10.67.8 21.68 3.2 36.55 14.82 46.79 36.59 8.84 18.78 5.13 44.88-3.38 58.28-9.25 14.57-19.33 24.01-30.81 28.86-5.46 2.31-10.15 3.48-13.95 3.48z" fill="#fff"/><g fill="#1d1d1b"><path d="m117.81 39.09c-8.37-17.79-21.04-30.98-43.75-34.33-22.71-3.35-41.35 4.82-52.55 17.59s-17.27 23.03-15.81 46.79c1.47 23.76 15.79 38.95 24.28 46.58 5.13 4.61 11.41 8.37 14.97 8.16s6.18-2.51 6.91-6.07.84-26.8.52-32.14-3.14-6.49-5.13-6.7-7.96 0-8.27-.1.42-11.41.63-12.04 10.57-1.67 10.99-1.99c.42-.31.21-3.24.31-7.12.1-3.87.52-12.77 10.89-22.09s26.9-6.39 26.9-6.39l-.73 13.61s-1.88-.1-6.28.1c-4.4.21-9.84 4.71-11.2 8.27s-2.09 12.98-.42 13.4 14.65.21 15.91.31.21 1.78-1.47 5.23-5.44 9.53-5.44 9.53h-5.02c-2.51 0-4.82 3.24-5.23 5.44-.42 2.2-1.05 36.32-.31 37.37.73 1.05 5.02 3.45 17.17-1.67 12.14-5.13 21.35-15.28 29-27.32 7.64-12.04 11.51-36.64 3.14-54.43zm-2.62 39.67c-2.93 10.68-12.46 22.19-23.45 30.25s-18.63 6.49-18.63 6.49l.63-31.61s6.59-.31 6.91-.31 1.99-.42 3.14-2.83 4.71-10.26 5.65-14.45-1.36-4.5-2.93-4.71-13.61-.52-13.61-.52-.1-7.96 2.83-11.2 7.96-3.24 10.15-3.35c2.2-.1 4.71-.21 5.02-1.36s.63-13.08 0-17.59c-.63-4.5-5.97-4.92-12.77-4.4s-17.17 1.78-26.48 12.56c-9.32 10.78-7.33 23.03-7.33 23.03s-5.97.1-8.06.21-3.98 1.88-4.08 2.83c-.1.94-.31 11.1-.1 15.49.21 4.4.42 6.49 2.41 6.8 1.25.2 9.32.73 9.32.73l.73 30.36c-3.45-.42-16.54-6.28-28.05-23.55s-7.22-39.25-3.77-48.67 19.57-37.37 50.56-35.8 43.23 19.16 49.3 31.3 5.55 29.62 2.62 40.3z"/><path d="m27.84 27.36c.77-.15 2.3 2.04 1.94 2.77s-3.98 2.09-7.85 10.21c-3.87 8.11-3.35 12.51-3.45 13.03s-2.88.37-3.3-.26.37-6.86 3.45-13.45 8.16-12.09 9.21-12.3z"/><path d="m76.82 101c-.14-.64 2.46-1.94 2.93-1.83s8.27 8.16 8.27 8.69-1.26 1.62-1.67 1.52-9.32-7.38-9.53-8.37z"/><path d="m83 97.44c-.14-.64 2.46-1.94 2.93-1.83s7.12 8.27 7.12 8.79-1.26 1.62-1.67 1.52-8.16-7.48-8.37-8.48z"/><path d="m90.22 94.2c-.14-.64 2.46-1.94 2.93-1.83s6.02 6.49 6.02 7.01-1.26 1.62-1.67 1.52-7.07-5.7-7.27-6.7z"/><path d="m94.99 90.06c-.14-.64 2.46-1.94 2.93-1.83s5.44 6.07 5.44 6.59-1.26 1.62-1.67 1.52-6.49-5.29-6.7-6.28z"/><path d="m99.07 87.24c-.14-.64 1.83-2.2 2.3-2.09s3.82 4.03 3.82 4.55-1.26 1.62-1.67 1.52-4.24-2.98-4.45-3.98z"/><path d="m102.73 81.38c-.14-.64 1.83-2.2 2.3-2.09s3.45 3.66 3.45 4.19-1.26 1.62-1.67 1.52-3.87-2.62-4.08-3.61z"/><path d="m105.61 74.78c-.14-.64 1.83-2.2 2.3-2.09s4.24 4.19 4.24 4.71-.94 1.62-1.36 1.52-4.97-3.14-5.18-4.13z"/><path d="m107.34 68.13c-.14-.64 1.83-2.2 2.3-2.09s4.24 4.19 4.24 4.71-.94 1.62-1.36 1.52-4.97-3.14-5.18-4.13z"/><path d="m108.33 62.33c-.14-.64 1.83-2.2 2.3-2.09s2.77 2.88 2.77 3.4-.94 1.62-1.36 1.52-3.51-1.83-3.72-2.83z"/></g></svg>