<svg viewBox="0 0 128 128" xmlns="http://www.w3.org/2000/svg"><path d="m62.79 128c-13.48 0-33.24-5.67-50.85-32.67-9.37-14.38-11.63-34.29-6.02-53.26 6.02-20.39 28.33-42.07 57.79-42.07h.71c16.57.2 46.09 10.64 54.8 37.86 8.28 25.89 7.89 45.45-1.19 59.82-12.69 20.07-29.84 29.7-53.99 30.31-.42 0-.83.02-1.24.02z" fill="#fff"/><g fill="#1d1d1b"><path d="m115.4 39.08c-7.7-24.11-34.31-34.88-51.03-35.08-28.12-.33-48.97 20.09-54.62 39.2s-2.61 37.46 5.54 49.95 24.33 31.45 48.64 30.84c25.95-.65 40.46-12.23 50.71-28.45 8.58-13.57 8.47-32.36.76-56.46zm-18.35 62.1c-21.5 17.05-40.83 15.31-55.38 9.99s-29.1-23.67-31.71-41.7c-2.59-18.02 9.35-60.58 53.54-62.53 18.98-.84 37.68 11.51 45.82 28.12s9.23 49.08-12.27 66.13z"/><path d="m88.53 34.65c-3.66 1.14-54.24 18.81-58.88 20.44s-3.42 6.11-1.06 7.17l14.01 5.86s5.29 13.93 6.92 16.78 3.91 2.28 5.21 1.3 8.06-6.51 8.06-6.51 7.17 5.21 12.22 8.55 7 .98 8.06-1.3 11.56-45.6 12.05-49.43-2.93-3.99-6.6-2.85zm-35.99 46.66-5.78-14.01 26.22-15.88-17.35 19.38s-2.36 1.71-.49 3.42 3.09 2.77 3.09 2.77l-5.7 4.32zm38.84-41.37c-.33 2.12-10.67 42.51-11.24 44.14s-1.63 2.52-3.91 1.14-17.67-12.54-17.67-12.54 14.9-16.78 17.1-19.38 2.52-4.32.57-5.86c-1.95-1.55-5.21.81-9.2 3.26-3.99 2.44-22.72 14.5-22.72 14.5l-11.65-5.05c-1.47-.65-1.38-1.79-.49-2.12.9-.33 54.89-18.89 56.76-19.63s2.77-.57 2.44 1.55z"/><path d="m39.1 17.55c1.04-.22 1.71 2.04 1.55 2.77s-2.2 1.71-7.49 7-5.78 8.8-6.51 9.28c-.73.49-2.28.41-3.01-.73s3.42-7.57 6.11-10.67c2.69-3.09 7.41-7.25 9.37-7.65z"/><path d="m54.33 104.12c-.57-.98.98-2.44 2.2-1.95s6.6 6.68 6.51 7.49-1.95 1.22-2.77.98c-.81-.24-5.37-5.54-5.94-6.51z"/><path d="m59.62 100.04c-.57-.98.98-2.44 2.2-1.95s9.94 10.26 9.85 11.08-1.95 1.22-2.77.98-8.71-9.12-9.28-10.1z"/><path d="m66.14 94.42c-.57-.98.98-2.44 2.2-1.95s9.85 11.24 9.77 12.05-1.22 1.38-2.04 1.14-9.37-10.26-9.94-11.24z"/><path d="m74.77 95.16c-.57-.98.98-2.44 2.2-1.95s6.92 7.82 6.84 8.63-1.22 1.38-2.04 1.14-6.43-6.84-7-7.82z"/><path d="m84.3 95.24c-.57-.98.98-2.44 2.2-1.95s5.46 5.94 5.37 6.76-1.22 1.38-2.04 1.14-4.97-4.97-5.54-5.94z"/><path d="m88.29 85.71c-.57-.98.98-2.44 2.2-1.95s7 8.14 6.92 8.96-1.22 1.38-2.04 1.14-6.51-7.17-7.08-8.14z"/><path d="m91.22 77.16c-.57-.98.98-2.44 2.2-1.95s8.22 9.61 8.14 10.42-1.22 1.38-2.04 1.14-7.74-8.63-8.31-9.61z"/><path d="m94.48 70.97c-.57-.98.98-2.44 2.2-1.95s10.59 11.48 10.51 12.3-1.22 1.38-2.04 1.14-10.1-10.51-10.67-11.48z"/><path d="m98.3 63.64c-.57-.98.98-2.44 2.2-1.95s9.2 10.1 9.12 10.91-1.22 1.38-2.04 1.14-8.71-9.12-9.28-10.1z"/><path d="m103.92 58.19c-.57-.98.98-2.44 2.2-1.95s6.03 6.51 5.94 7.33-1.22 1.38-2.04 1.14-5.54-5.54-6.11-6.51z"/><path d="m106.69 52.49c-.57-.98.98-2.44 2.2-1.95s3.09 3.5 3.01 4.32-.16 2.12-.98 1.87-3.66-3.26-4.23-4.23z"/></g></svg>