<svg viewBox="0 0 128 128" xmlns="http://www.w3.org/2000/svg"><path d="m52.86 123.47c-.75 0-1.52-.02-2.29-.06-11.43-.61-21.27-5.79-28.47-14.99-5.33-6.81-9.02-15.75-9.89-23.92-.82-7.74 1.24-20.12 9.73-29.56 7.08-7.87 17.35-12.03 29.68-12.03.46 0 .93 0 1.4.02 2.37.06 6.84 3.6 8.69 6.74-.22-23.44-.32-35.67-.22-37.03.22-3.35 1.55-7.46 6.62-8 .41-.04 1.15-.1 2.98-.1 3.89 0 10.26.26 11.53.33 4.24.22 5.55 4.69 6.33 7.36l.17.58c.6 1.98 3.02 8.78 8.95 13.14 4.87 3.58 7.37 3.88 9.38 4.12.66.08 1.35.16 2.07.33 4.49 1.08 6.65 6.04 6.44 9.05-.02.38-.04 2.63-.06 4.62-.1 10.58-.17 11.34-.4 12.17-.47 1.72-2.34 5.73-9.53 5.73-1.65 0-3.54-.21-5.61-.64-3.79-.77-7.12-2.01-9.8-3.26.58 9.44 1.29 25.29.11 32.89-1.95 12.57-13.93 32.51-37.79 32.51z" fill="#fff"/><g fill="#1d1d1b"><path d="m108.57 34.29c-2.39-.58-5.7.17-12.88-5.12-7.18-5.28-9.83-13.29-10.4-15.19-.58-1.9-1.32-5.04-2.89-5.12s-11.56-.5-13.87-.25-2.89 1.82-3.05 4.29c-.17 2.48.5 60.52.5 64.9s-2.31 9.83-5.94 14.04-19.65 6.61-19.07-9.33 16.43-14.78 16.84-14.86.74-14.7.74-15.52-4.43-5.17-5.61-5.2c-30.63-.74-38.06 24.69-36.74 37.16s11.31 34.1 34.6 35.34c23.28 1.24 34.27-18.41 35.92-29.06s-.66-39.47-.66-39.47 6.19 4.71 15.11 6.52c8.92 1.82 10.24-1.32 10.49-2.23s.25-14.86.33-16.02-.99-4.29-3.39-4.87zm-1.98 15.68s-4.95.83-12.88-1.24c-7.93-2.06-8.83-4.54-9.66-4.71s-2.97 1.57-2.89 2.15-.08 32.86-.25 39.22-8.5 29.06-30.3 27.5c-21.8-1.57-31.38-20.23-31.38-30.14s5.61-33.03 32.37-32.7l.25 12.39s-16.68 1.16-17.67 16.6 8.26 21.14 15.77 20.64 19.16-7.1 19.07-17.5c-.08-10.4-.17-69.44-.17-69.44l12.8.08s1.32 10.16 9.58 17.01 15.36 7.6 15.36 7.6v12.55z"/><path d="m34.35 57.24c.68-.19 2.31 2.06 1.82 2.81s-4.05 2.56-5.86 5.45c-1.82 2.89-2.72 7.35-2.97 7.6s-3.14.08-3.47-.25 1.57-6.61 3.72-9.58 5.86-5.78 6.77-6.03z"/><path d="m71.83 17.33c.14-.24 2.97-.72 3.14-.11s.22 11.23-.11 11.5-2.42.39-2.75.17-.66-10.9-.28-11.56z"/><path d="m92.42 41.72c-.35-.99 2.09-2.04 2.75-1.87s4.79 5.78 4.68 6.5-2.2.77-2.64.77-4.46-4.46-4.79-5.39z"/><path d="m97.65 39.41c-.44-.61 1.82-1.49 2.86-1.38s4.07 5.61 3.91 6.33-1.05 2.04-1.71 1.87-4.51-6.06-5.06-6.83z"/><path d="m50.31 103.92c-.05-.47 2.48-.83 3.03-.66s3.08 5.45 3.03 6.06-1.6.77-2.48.5c-.88-.28-3.52-5.39-3.58-5.89z"/><path d="m55.87 101.99c.07-.79 2.53-1.76 3.14-1.54s4.73 6.77 4.46 7.43-1.54 1.05-2.42.77-5.23-6-5.17-6.66z"/><path d="m60.93 99.24c0-.91 2.53-1.82 3.36-1.76s4.51 5.61 3.96 6.55-1.54 1.27-2.48.72-4.84-5.01-4.84-5.5z"/><path d="m65.83 94.84c-.01-.23 2.26-1.87 3.03-1.65s4.07 4.84 4.02 5.45-.83 1.27-2.04 1.32-4.95-4.24-5.01-5.12z"/><path d="m69.57 90.6c-.06-.69 1.93-1.82 2.42-1.87s5.06 4.73 5.01 5.34-1.65 2.04-1.98 2.04-5.39-4.9-5.45-5.5z"/><path d="m72.16 84.65c-.47-.87 2.37-2.31 2.97-2.04s3.41 3.19 3.25 3.74-1.21 2.04-1.93 1.93-3.91-2.92-4.29-3.63z"/><path d="m73.92 78.71c-.15-.75 1.38-1.93 2.2-1.93s1.82 1.27 1.93 2.04.33 1.54-.33 1.87-3.52-.61-3.8-1.98z"/></g></svg>