<svg viewBox="0 0 128 128" xmlns="http://www.w3.org/2000/svg"><path d="m65.14 128c-19.14 0-32.67-5.34-41.35-16.32-8.35-10.56-16.15-31-12.98-56.69 3.2-25.93 17.69-46.89 36.06-52.16 6.56-1.88 13.29-2.83 19.99-2.83 12.81 0 24.32 3.53 32.4 9.93 13.85 10.98 18.36 30.95 18.4 31.15 1.21 6.06-2.49 8.61-6.27 10.3-1.88.84-3.95 1.28-6.01 1.28-1.32 0-4.59-.21-6.34-2.13-.84-.92-.97 6.36-.94 8.74 16.3 12.92 15.28 33.5 12.32 42.85-3.44 10.89-15.4 24.13-37.79 25.62-2.58.17-5.1.26-7.5.26z" fill="#fff"/><g fill="#1d1d1b"><path d="m113.74 41.86c-.52-2.62-5.34-19.58-16.96-28.8s-30.89-11.52-48.8-6.39-30.37 25.87-33.2 48.8 3.46 42.72 12.15 53.72 23.35 16.02 45.45 14.56c22.1-1.47 31.73-14.87 34.24-22.83s4.19-27.85-12.57-39.69c0 0 2.2-20.52-19.58-28.17-21.78-7.64-30.26 9.84-30.37 11.41-.1 1.57.1 4.29.63 4.92.52.63 8.38 5.13 9.01 5.03s6.49-8.27 14.87-7.85 10.47 7.02 10.47 9.11c0 0-15.39-3.35-28.48 2.3s-9.95 20.31-7.85 24.71c2.09 4.4 5.24 11.83 12.99 14.45s18.53-.42 24.61-3.98c6.07-3.56 11.1-11.83 11.41-17.07 0 0 5.34 4.82 2.09 13.72s-13.51 21.99-33.51 20.94-30.79-23.56-31.21-38.33 1.57-35.5 10.89-43.77c11.2-9.94 29.74-11.73 43.46-5.76 14.79 6.44 18.95 19.16 18.43 24.71-.07.7 3.87 1.89 7.85.1 3.98-1.78 4.5-3.25 3.98-5.86zm-44.51.21c-11.62-2.3-16.34 4.92-16.34 4.92l-5.76-3.98s5.34-9.11 17.59-9.22c12.25-.1 23.35 10.26 24.19 24.19 0 0-2.41-1.15-6.91-1.89 0 0 .16-11.47-12.78-14.03zm35.08.21s-5.24-22.93-25.03-27.02c-19.79-4.08-34.01-1.05-43.88 9.21-10.37 10.79-12.98 26.18-11.31 50.26 1.68 24.08 21.47 39.27 39.58 39.27s30.05-14.03 33.09-24.19.42-24.29-20.42-26.7-26.39 8.06-24.71 14.14c1.68 6.07 9.22 8.48 18.64 4.29s11.2-12.36 11.2-12.36c4.29.73 6.91 3.98 6.91 3.98-1.47 8.06-12.46 14.35-18.64 16.13s-24.61 2.2-25.76-13.61 9.63-18.74 30.68-17.91c19.46.77 27.12 12.98 29.63 22.3s-3.46 24.71-12.46 30.16c-9.01 5.45-22.51 9.84-44.09 5.13-21.57-4.71-29.11-28.8-30.05-42.62s0-31.52 11.1-47.54 36.34-22.72 57.18-14.56c20.84 8.17 23.98 31 23.98 31l-5.65.63zm-26.39 27.23s-2.62 4.71-6.6 7.85-13.4 6.07-14.03.42 5.45-8.06 8.38-8.38c2.93-.31 12.25.1 12.25.1z"/><path d="m19.7 55.06c.15-1.1 2.59-.39 2.91.63s-.79 5.34-.47 11.62c.31 6.28 1.18 9.35 1.18 10.29s-2.28 1.1-2.75-.08-1.34-6.83-1.57-12.02.55-9.27.71-10.45z"/><path d="m50.57 63.93c.77-.15 1.73 1.1 1.73 1.81s-2.43.86-3.38 4.63-.08 5.89-.47 6.28-2.36.31-2.83-1.65.16-5.89 1.1-7.7 2.67-3.14 3.85-3.38z"/><path d="m100.7 82.23c.1-.44 1.73-1.05 2.25-.31.52.73.63 4.08-.26 8.12s-2.46 6.49-2.77 6.6-2.04-.31-1.83-1.31c.21-.99 1.99-3.82 2.51-6.39s0-6.23.1-6.7z"/><path d="m73.21 83.07c.18-.12 1.62 1.99 1.57 2.25s-1.41.84-1.73.73-1.1-1.68-1.15-1.94.99-.84 1.31-1.05z"/><path d="m76.25 80.45c.18-.12 1.88 2.67 1.83 2.93s-1.47 1.05-1.78.94-1.73-2.25-1.78-2.51 1.41-1.15 1.73-1.36z"/><path d="m79.39 77.36c.18-.12 3.46 3.25 3.4 3.51s-1.78 1.52-2.09 1.41-3.19-3.09-3.25-3.35 1.62-1.36 1.94-1.57z"/><path d="m82.06 74.17c.46-.13 4.87 3.98 4.76 4.35s-1.47 1.68-1.47 1.68-4.19-3.98-4.56-4.29.89-1.62 1.26-1.73z"/><path d="m82.58 72.81c-.11-.19.68-1.73 1.05-1.73s2.41 1.73 2.51 2.25-.21 1.57-.73 1.62-2.62-1.78-2.83-2.15z"/><path d="m83.47 54.01c-.67 0 0-2.46.26-2.46s4.66 1.57 4.97 1.88.42 2.41.42 2.41-5.34-1.83-5.65-1.83z"/><path d="m82.11 47.46c.42-.05 5.65.84 5.76.99s.73 2.15.73 2.15-5.5-.52-5.97-.79-.52-2.36-.52-2.36z"/><path d="m80.44 43.33c.31 0 2.2.37 2.46.52s.42 1.47.31 1.68-2.25.26-2.62.16-.16-2.36-.16-2.36z"/></g></svg>