<svg viewBox="0 0 128 128" xmlns="http://www.w3.org/2000/svg"><path d="m19.46 121.43c-3.2 0-8.09-.51-10.27-1.28-1.78-.62-3.03-1.94-3.42-3.6-.7-2.99 1.46-5.22 3.38-7.19.22-.23.45-.46.67-.69 1.45-1.53 23.13-25.67 36.14-40.17-15.01-19.7-35.95-47.15-37.1-48.54-2.26-2.71-2.86-6.29-1.54-9.12 1.19-2.53 3.72-4.04 6.77-4.04h.27c4.06.12 26.51.33 27.52.33 3.55 0 7.02 2.41 10.62 7.38 2.77 3.83 13.24 18.48 18.43 25.73 6.55-7.52 20.7-23.7 23.95-27.21.93-1 1.65-1.81 2.23-2.46 2.21-2.49 3.54-3.99 6.87-3.99.95 0 2.69.08 4.54.17 1.73.08 3.68.18 4.59.18h.23c.1-.01.27-.02.44-.02 1.91 0 3.6 1.08 4.39 2.83.5 1.09 1.3 4.05-2.03 7.88-1.91 2.19-26.69 29.21-34.4 37.62 8.53 11.59 37.68 51.18 38.89 52.99.65.98 2.64 3.97 1.29 7.03-.57 1.3-1.91 2.96-5 3.43-2.81.43-19.18.57-24.51.57-5.19 0-5.49-.07-6.02-.21-2.2-.54-4.79-1.81-7.81-7.22-1.63-2.92-12.36-17.16-20.7-28.02-31.17 35.58-32.59 36.34-33.37 36.75-1.13.61-2.64.86-5.04.86z" fill="#fff"/><path d="m117.29 110.43c-1.32-1.98-40.73-55.49-40.73-55.49s34.35-37.43 36.55-39.96 1.65-4.18.55-4.07-7.71-.33-9.69-.33-1.98.66-6.17 5.17c-4.18 4.51-27.19 30.94-27.19 30.94s-17.61-24.66-21.36-29.83c-3.74-5.17-6.17-5.72-7.38-5.72s-23.67-.22-27.63-.33-4.57 3.9-2.31 6.61c1.65 1.98 39.19 51.3 39.19 51.3s-36.44 40.62-38.42 42.72c-1.98 2.09-4.4 4.18-2.2 4.95s10.46 1.54 12.11.66 35.45-39.52 35.45-39.52 21.36 27.63 24 32.37c2.64 4.73 4.4 5.06 5.28 5.28s26.09 0 28.95-.44 2.31-2.31.99-4.29zm-26.97-2.64-67.16-89.73c.77-.11 17.83.66 17.83.66l63.63 89.17-14.31-.11z" fill="#1d1d1b"/></svg>