<svg viewBox="0 0 128 128" xmlns="http://www.w3.org/2000/svg"><path d="m65.75 112.36c-13.64 0-26.27-.25-33.8-.67-13.61-.76-20.29-3.29-25.55-9.7-4.25-5.17-6.4-13.36-6.4-24.35 0-8.15 1.52-29.19 2.14-35.25.6-5.86 2.43-23.7 23.34-25.47 10.05-.85 19.71-1.28 28.72-1.28s18.23.46 26.43 1.37l4.57.5c16.42 1.79 23.92 2.6 31.76 7.64 9.94 6.39 10.87 14.95 11.02 24.65.15 10.15-.9 34.91-2.2 41.41-2.6 12.98-13.24 20.14-30.79 20.71-8.63.28-18.74.43-29.25.43z" fill="#fff"/><g fill="#1d1d1b"><path d="m82.79 63.12c-1.41-1.33-24.72-16.71-28.25-18.36s-6.51.31-6.43 4.16c0 0-.71 29.43-.71 33.35s5.26 3.53 9.1 1.02 24.95-14.05 26.68-15.77c1.73-1.73 1.02-3.06-.39-4.39zm-29.43 18.29v-28.25c0-.86.94-1.18.94-1.18l24.8 14.83zm70.62-31.55c-.16-10.44-1.49-16.4-9.18-21.34s-15.46-5.41-34.61-7.53-38.61-1.41-54.38-.08-18.78 12.94-19.7 21.89c-.63 6.12-2.12 26.84-2.12 34.84s1.18 16.56 5.49 21.82c4.32 5.26 9.97 7.53 22.68 8.24s40.96.94 62.7.24c21.74-.71 25.82-11.61 26.99-17.5 1.18-5.89 2.28-30.13 2.12-40.57zm-7.76 38.14c-.71 5.81-7.77 11.77-20.25 12.95s-39.63 1.26-54.46.78c-14.83-.47-23.39-2.67-26.99-4.87-3.61-2.2-6.83-6.28-7.3-18.68s.78-29.19 2.35-37.43 5.1-15.62 22.05-17.03c12.07-1.01 31.78-.47 47.95.78 16.17 1.26 26.99 3.61 31.7 5.89s7.69 11.06 7.53 19.93-1.88 31.86-2.59 37.67z"/><path d="m22.6 28.52c.88-.03 1.57 2.12 1.26 2.83s-2.9-.31-5.49 2.98c-2.59 3.3-2.12 5.96-2.75 6.59s-2.67.78-2.75-.63.63-4.87 2.98-8c2.35-3.14 4.16-3.69 6.75-3.77z"/><path d="m14.04 86.2c-.64-1.11 1.26-2.43 2.04-2.04s8.55 9.34 8.63 10.2-1.1 1.96-1.73 1.88-8.08-8.55-8.95-10.04z"/><path d="m21.81 83.92c-.26-.66 1.73-1.88 2.43-1.73s10.67 12.16 10.75 12.95-2.04 1.88-2.43 1.65-10.04-11.06-10.75-12.87z"/><path d="m33.51 88.71c-.17-.61 1.96-2.04 2.9-1.73s3.69 4.63 3.22 5.26-1.96 1.1-2.35.78-3.53-3.45-3.77-4.32z"/><path d="m88.91 91.69c-.04-.4 1.57-1.65 2.83-1.18s5.89 6.75 5.57 7.22-1.88.71-2.83.47c-.94-.24-5.49-5.81-5.57-6.51z"/><path d="m94.56 88.79c-.11-.91 1.49-1.88 2.59-1.49s6.28 6.28 6.04 6.98-1.18 1.49-1.96 1.1-6.59-5.96-6.67-6.59z"/><path d="m99.58 85.49c-.32-.45 1.1-2.51 2.28-1.8s5.57 6.04 5.81 7.3.16 1.96-.94 2.04-6.75-6.98-7.14-7.53z"/><path d="m103.19 79.6c-.27-.67 1.33-2.43 1.96-2.12s7.22 8.48 7.22 9.26-.63 1.41-1.18 1.41-7.38-6.98-8-8.55z"/><path d="m104.05 72.07c-.57-.97 1.18-2.67 1.88-2.67s7.77 7.45 8 8.24.08 2.12-1.02 2.35c-1.1.24-8.32-6.98-8.87-7.93z"/><path d="m107.11 66.89c-.72-.93 1.18-2.28 1.96-2.28s4.87 4.24 5.26 5.57.08 2.04-.47 2.28-6.2-4.87-6.75-5.57z"/><path d="m109.7 61.63c-.42-.94.94-2.43 1.65-2.35s2.98 2.35 3.06 2.9.31 2.35-.31 2.67-4.08-2.51-4.39-3.22z"/><path d="m110.57 55.12c-.43-.56.16-2.43 1.02-2.51s3.06 1.73 3.22 2.67.31 2.28-.24 2.67-3.45-2.12-4-2.83z"/></g></svg>